<?xml version="1.0" standalone="no"?>
<!DOCTYPE svg PUBLIC "-//W3C//DTD SVG 20010904//EN"
 "http://www.w3.org/TR/2001/REC-SVG-20010904/DTD/svg10.dtd">
<svg version="1.0" xmlns="http://www.w3.org/2000/svg"
 width="600.000000pt" height="600.000000pt" viewBox="0 0 600.000000 600.000000"
 preserveAspectRatio="xMidYMid meet">

<g transform="translate(0.000000,600.000000) scale(0.100000,-0.100000)"
fill="#000000" stroke="none">
<path d="M3175 5033 c-155 -22 -429 -128 -500 -194 -14 -12 -34 -18 -62 -16
-44 1 -73 -15 -73 -43 0 -10 -7 -24 -16 -31 -11 -9 -14 -23 -11 -46 4 -25 -3
-52 -29 -106 -70 -147 -82 -338 -30 -453 25 -55 26 -58 11 -107 -37 -126 0
-246 83 -272 18 -5 21 -10 12 -20 -17 -21 -8 -59 15 -63 11 -2 30 -8 42 -14
12 -6 30 -8 41 -6 14 4 24 -3 38 -26 10 -17 49 -64 87 -104 66 -70 69 -75 63
-110 -11 -63 -36 -129 -54 -145 -21 -18 -91 -29 -190 -28 -148 1 -372 -60
-529 -144 -299 -159 -432 -409 -528 -997 -27 -162 -31 -241 -15 -282 10 -27
55 -53 136 -80 51 -16 52 -18 88 -97 21 -46 35 -88 31 -97 -16 -42 8 -790 26
-824 16 -30 47 -41 80 -28 23 10 46 9 116 -4 130 -23 323 -44 542 -57 221 -13
1017 -7 1226 10 158 13 404 40 426 47 9 2 23 18 29 35 11 26 10 36 -3 65 -17
35 -32 143 -41 305 l-6 96 49 -5 c61 -6 170 13 233 40 63 27 130 100 154 169
16 45 19 82 19 234 -1 156 -4 188 -22 244 -22 63 -22 64 -2 100 10 19 19 46
19 58 0 20 -465 737 -551 849 -104 135 -209 212 -354 257 -50 16 -98 32 -107
38 -10 5 -24 9 -32 9 -14 0 -46 36 -46 51 0 3 18 9 41 12 87 12 176 108 213
233 10 33 28 91 41 129 26 77 49 251 39 291 -5 20 0 32 24 57 40 42 52 75 52
148 0 56 1 59 25 59 16 0 25 6 25 16 0 13 -7 15 -30 10 -26 -5 -32 -2 -40 19
-5 13 -25 41 -44 63 -41 44 -61 122 -33 122 41 0 51 113 17 180 -19 37 -19 42
-5 64 9 13 18 46 22 73 5 43 2 54 -16 72 -11 11 -21 28 -21 36 0 8 -9 24 -20
35 -11 11 -20 27 -20 35 0 18 -39 35 -77 35 -14 0 -99 25 -188 55 -153 52
-169 55 -251 54 -49 -1 -102 -4 -119 -6z m584 -491 c26 -25 29 -37 36 -125 8
-110 7 -111 -66 -77 -54 24 -105 26 -113 4 -9 -23 0 -32 46 -44 l41 -12 -30
-17 c-29 -18 -83 -76 -83 -90 0 -4 -24 -6 -53 -3 -35 3 -66 -1 -91 -12 -47
-20 -46 -19 -46 -1 0 25 -69 93 -100 100 -44 10 -47 25 -5 25 40 0 55 21 34
46 -16 20 -91 14 -141 -12 -37 -19 -164 -147 -173 -174 -4 -14 -17 -16 -73
-14 -59 2 -170 19 -178 27 -12 12 51 283 67 293 5 3 53 16 107 29 53 13 117
31 141 39 l43 16 -16 -26 c-10 -15 -14 -33 -10 -46 6 -19 11 -20 78 -14 40 4
121 23 186 46 89 30 131 39 185 39 39 0 93 7 120 14 28 8 54 15 58 16 5 0 21
-12 36 -27z m10 -273 c19 -7 31 -18 31 -29 0 -9 3 -39 7 -66 l6 -48 -28 22
c-40 32 -108 30 -141 -3 -29 -29 -29 -68 -1 -73 10 -2 29 8 42 22 20 21 33 26
75 26 l50 0 0 -47 c0 -37 -3 -44 -12 -35 -24 24 -35 12 -42 -49 -7 -57 -9 -61
-29 -55 -12 3 -27 6 -34 6 -23 0 -82 61 -93 95 -18 55 9 134 69 195 52 54 53
55 100 39z m132 -64 c25 -54 24 -129 -3 -185 l-21 -45 -8 50 c-4 28 -9 94 -12
148 -4 86 -2 96 11 85 8 -7 23 -31 33 -53z m-586 15 c45 -28 79 -99 72 -151
-12 -94 -85 -168 -167 -172 l-45 -2 1 53 c2 48 0 52 -21 52 -14 0 -35 -14 -53
-34 -28 -32 -31 -33 -45 -18 -25 30 -37 60 -37 96 0 74 70 176 134 196 45 14
122 4 161 -20z m255 -140 l5 -66 -27 4 c-34 5 -36 -7 -4 -37 34 -32 38 -59 15
-82 -22 -22 -46 -19 -91 12 -34 24 -45 24 -53 -2 -5 -14 -1 -25 11 -33 15 -11
11 -14 -32 -20 -111 -14 -254 -115 -285 -199 -7 -20 -18 -37 -25 -37 -22 0
-161 99 -217 155 -34 34 -67 81 -88 125 -19 38 -37 70 -41 70 -6 0 -11 -33
-23 -150 -3 -30 -2 -77 4 -105 9 -46 8 -48 -6 -30 -8 11 -21 35 -29 53 -8 17
-19 32 -25 32 -6 0 -9 7 -5 15 11 29 -5 45 -46 45 -51 0 -72 12 -88 50 -16 39
-7 127 20 187 16 36 23 43 47 43 32 0 67 -21 101 -62 26 -31 57 -37 66 -12 3
9 6 33 6 55 l0 39 63 -7 c34 -3 82 -12 106 -19 25 -7 48 -11 53 -8 4 3 8 -15
8 -41 0 -48 20 -108 46 -136 12 -13 13 -25 5 -60 -23 -100 66 -122 114 -28 12
21 23 29 43 29 123 0 229 113 220 233 -3 49 11 57 92 54 l55 -2 5 -65z m228
-121 c10 -14 10 -18 -3 -23 -11 -4 -15 1 -15 21 0 14 1 24 3 22 1 -2 8 -11 15
-20z m-660 -39 c-3 -19 -5 -20 -23 -6 -20 14 -20 14 0 36 17 19 21 20 23 6 2
-9 2 -25 0 -36z m584 -20 c22 0 28 -5 28 -21 0 -12 14 -34 31 -50 30 -28 31
-32 25 -82 -9 -71 -20 -86 -35 -50 -20 49 -74 102 -134 131 -48 24 -55 31 -43
41 8 7 17 25 21 40 l6 28 37 -18 c20 -11 49 -19 64 -19z m88 -21 c0 -27 -2
-30 -15 -19 -24 20 -19 39 13 49 1 1 2 -13 2 -30z m-678 -31 c-4 -18 -38 -48
-54 -48 -13 0 -18 37 -9 63 9 23 12 25 39 15 21 -8 28 -16 24 -30z m443 -97
l40 -7 -53 -12 c-57 -13 -149 -14 -197 -2 -81 19 114 39 210 21z m-305 -63 c0
-22 52 -78 90 -98 22 -11 56 -20 75 -20 l37 0 -33 -41 -33 -41 -63 5 c-39 3
-82 14 -111 29 -41 21 -47 29 -50 59 -2 27 4 43 33 77 36 42 55 52 55 30z
m444 -48 c9 -22 16 -49 16 -59 0 -24 -29 -49 -70 -61 -29 -8 -37 -6 -71 23
l-38 32 40 19 c21 10 51 33 66 51 16 19 31 34 34 34 4 1 14 -17 23 -39z m-765
-234 c70 -52 321 -138 442 -152 l59 -7 31 -64 31 -65 -29 -82 c-62 -171 -117
-217 -265 -224 -169 -8 -332 55 -465 181 -71 68 -141 162 -129 174 3 3 44 12
91 19 127 19 164 54 188 185 7 33 12 59 12 59 1 0 16 -11 34 -24z m1038 -1381
c20 -20 33 -38 30 -41 -3 -3 -56 0 -117 6 -61 7 -109 14 -108 15 2 2 23 15 48
29 64 37 104 34 147 -9z m-972 4 c66 -5 269 -34 450 -64 342 -57 603 -90 787
-101 117 -8 138 -1 138 42 0 29 -27 44 -79 44 -22 0 -42 4 -45 9 -6 10 91 31
144 31 36 0 38 -2 68 -67 47 -105 56 -148 56 -288 1 -102 -3 -143 -18 -188
-23 -69 -74 -120 -138 -138 -65 -17 -261 -5 -418 26 -247 49 -412 115 -656
263 -185 111 -234 136 -332 167 -98 31 -192 45 -309 45 -85 0 -94 2 -106 23
-23 36 -61 136 -55 143 11 10 161 46 228 54 96 11 152 11 285 -1z m-581 -81
c1 -1 13 -39 26 -83 41 -143 44 -145 223 -156 219 -12 339 -54 555 -193 l84
-53 -99 -41 c-143 -59 -295 -116 -403 -150 -367 -116 -489 -132 -588 -78 -106
59 -246 231 -338 415 -39 78 -108 260 -101 267 6 5 150 45 217 59 98 22 246
32 343 23 43 -3 80 -8 81 -10z"/>
<path d="M3183 4150 c-61 -37 -73 -91 -13 -60 53 27 91 26 120 -5 38 -40 68
-29 56 21 -8 30 -61 64 -101 64 -16 0 -44 -9 -62 -20z"/>
<path d="M2556 3983 c1 -21 2 -42 3 -46 1 -5 14 -7 30 -5 18 1 37 -5 49 -15
33 -30 78 3 54 39 -15 24 -86 64 -112 64 -25 0 -27 -3 -24 -37z"/>
</g>
</svg>
